<svg xmlns="http://www.w3.org/2000/svg" viewBox="0 0 1200 630" role="img" aria-labelledby="title desc">
<title id="title">CashClimb Investing</title><desc id="desc">Portfolio steps, risk ranges, and compound growth</desc>
<defs><linearGradient id="bg" x1="0" y1="0" x2="1" y2="1"><stop offset="0" stop-color="#121315"/><stop offset="0.55" stop-color="#171411"/><stop offset="1" stop-color="#0B0C0D"/></linearGradient><radialGradient id="glow" cx="35%" cy="20%" r="70%"><stop offset="0" stop-color="#D4AF37" stop-opacity="0.25"/><stop offset="1" stop-color="#D4AF37" stop-opacity="0"/></radialGradient></defs>
<rect width="1200" height="630" fill="url(#bg)"/><rect width="1200" height="630" fill="url(#glow)"/>
<g opacity="0.18" stroke="#D4AF37" stroke-width="2" fill="none"><path d="M110 485 C240 430 310 455 420 385 S620 270 760 330 980 270 1090 175"/><path d="M110 535 H1090"/><path d="M210 535 V430M380 535 V390M550 535 V335M720 535 V360M890 535 V280M1060 535 V190"/></g>
<g transform="translate(92 92)"><rect x="0" y="0" width="420" height="58" rx="29" fill="#D4AF37" opacity="0.14"/><text x="28" y="38" fill="#D4AF37" font-family="Inter,Arial,sans-serif" font-size="24" font-weight="700">CashClimb guide</text><text x="0" y="170" fill="#F0EDE8" font-family="Georgia,serif" font-size="72" font-weight="700">Investing</text><text x="3" y="225" fill="#B7B0AA" font-family="Inter,Arial,sans-serif" font-size="28">Clear decisions, practical tradeoffs, fewer second guesses.</text></g>
<g transform="translate(785 142)"><rect x="0" y="0" width="285" height="345" rx="34" fill="#F0EDE8" opacity="0.06" stroke="#F0EDE8" stroke-opacity="0.12"/><circle cx="72" cy="78" r="28" fill="#D4AF37" opacity="0.35"/><rect x="118" y="58" width="108" height="14" rx="7" fill="#F0EDE8" opacity="0.45"/><rect x="118" y="86" width="70" height="10" rx="5" fill="#F0EDE8" opacity="0.22"/><rect x="48" y="156" width="190" height="12" rx="6" fill="#D4AF37" opacity="0.55"/><rect x="48" y="196" width="150" height="12" rx="6" fill="#F0EDE8" opacity="0.22"/><rect x="48" y="236" width="212" height="12" rx="6" fill="#F0EDE8" opacity="0.18"/></g>
</svg>